<?xml version="1.0" encoding="UTF-8" standalone="no"?>
<svg
   xmlns:dc="http://purl.org/dc/elements/1.1/"
   xmlns:cc="http://creativecommons.org/ns#"
   xmlns:rdf="http://www.w3.org/1999/02/22-rdf-syntax-ns#"
   xmlns:svg="http://www.w3.org/2000/svg"
   xmlns="http://www.w3.org/2000/svg"
   xmlns:xlink="http://www.w3.org/1999/xlink"
   xmlns:sodipodi="http://sodipodi.sourceforge.net/DTD/sodipodi-0.dtd"
   xmlns:inkscape="http://www.inkscape.org/namespaces/inkscape"
   width="210mm"
   height="297mm"
   viewBox="0 0 210 297"
   version="1.1"
   id="svg1802"
   inkscape:version="1.0.1 (0767f8302a, 2020-10-17)"
   sodipodi:docname="BlastMarkFX.svg">
  <defs
     id="defs1796">
    <linearGradient
       inkscape:collect="always"
       id="linearGradient2548">
      <stop
         style="stop-color:#ffffff;stop-opacity:0"
         offset="0"
         id="stop2544" />
      <stop
         style="stop-color:#ffffff;stop-opacity:1"
         offset="1"
         id="stop2546" />
    </linearGradient>
    <radialGradient
       inkscape:collect="always"
       xlink:href="#linearGradient2548"
       id="radialGradient2552"
       cx="386.16797"
       cy="390.35645"
       fx="386.16797"
       fy="390.35645"
       r="261.38867"
       gradientTransform="matrix(0.26458333,0,0,0.27816431,-2.6458334,-5.8305882)"
       gradientUnits="userSpaceOnUse" />
  </defs>
  <sodipodi:namedview
     id="base"
     pagecolor="#ffffff"
     bordercolor="#666666"
     borderopacity="1.0"
     inkscape:pageopacity="0.0"
     inkscape:pageshadow="2"
     inkscape:zoom="1"
     inkscape:cx="355.98122"
     inkscape:cy="417.42914"
     inkscape:document-units="mm"
     inkscape:current-layer="layer1"
     inkscape:document-rotation="0"
     showgrid="false"
     inkscape:snap-object-midpoints="true"
     inkscape:snap-global="false"
     inkscape:window-width="1920"
     inkscape:window-height="1136"
     inkscape:window-x="0"
     inkscape:window-y="27"
     inkscape:window-maximized="1" />
  <metadata
     id="metadata1799">
    <rdf:RDF>
      <cc:Work
         rdf:about="">
        <dc:format>image/svg+xml</dc:format>
        <dc:type
           rdf:resource="http://purl.org/dc/dcmitype/StillImage" />
        <dc:title></dc:title>
      </cc:Work>
    </rdf:RDF>
  </metadata>
  <g
     inkscape:label="Layer 1"
     inkscape:groupmode="layer"
     id="layer1">
    <rect
       style="fill:#000000;stroke:none;stroke-width:13.2292;stroke-opacity:0;stop-color:#000000"
       id="rect2554"
       width="155.68472"
       height="155.68472"
       x="21.803549"
       y="24.590931" />
    <path
       id="path2423"
       style="fill:url(#radialGradient2552);fill-opacity:1;stroke:none;stroke-width:0.264583px;stroke-linecap:butt;stroke-linejoin:miter;stroke-opacity:1"
       inkscape:transform-center-x="-2.0522597"
       inkscape:transform-center-y="-39.410656"
       d="m 96.690736,30.043643 c 0,0 -2.04787,19.936134 -7.953518,27.009204 -3.931147,-0.633675 -10.59057,-9.674344 -10.59057,-9.674344 0,0 0.215035,10.171017 -2.653585,14.435812 -8.369544,1.025789 -25.020177,-14.400673 -25.020177,-14.400673 0,0 15.793992,19.709177 14.448731,30.330965 -10.447416,0.990579 -34.552929,-2.93212 -34.552929,-2.93212 0,0 20.560792,10.607034 25.843899,17.369483 -2.17034,3.215677 -14.345893,5.173326 -14.345893,5.173326 0,0 12.299275,1.405416 15.132925,7.312214 -4.556892,3.82374 -20.756356,8.08684 -20.756356,8.08684 0,0 11.304874,1.28979 15.884819,4.038 -8.286917,7.97224 -17.320905,15.99127 -17.320905,15.99127 0,0 18.528717,-8.43162 29.650385,-9.18703 0.04517,5.55192 -9.631452,20.05768 -9.631452,20.05768 0,0 9.171593,-6.91647 18.414378,-11.17812 -4.755156,13.97534 -16.033647,31.73449 -16.033647,31.73449 0,0 15.94503,-15.77837 25.173141,-18.32653 1.816049,3.75857 2.867009,15.44454 2.867009,15.44454 0,0 7.458577,-12.82259 12.428183,-16.24345 6.107286,5.12668 14.928786,30.37644 14.928786,30.37644 0,0 -1.03015,-11.42201 -0.60771,-23.55206 4.49105,2.35393 10.21333,6.90191 10.21333,6.90191 0,0 -5.59369,-12.09474 -8.57829,-22.51284 0.85088,-4.12199 8.76332,-1.22545 13.1253,-0.79478 6.27958,0.62 18.30741,4.81728 18.30741,4.81728 0,0 -8.10864,-7.82335 -13.7604,-16.19333 14.7416,-0.83879 34.61546,3.93723 34.61546,3.93723 0,0 -19.1489,-12.32705 -23.6828,-25.84752 6.4425,-8.657161 26.45059,-20.902598 26.45059,-20.902598 0,0 -15.68031,3.156693 -29.94236,3.489708 4.41518,-6.523442 10.81846,-13.850315 10.81846,-13.850315 -6.86252,1.527704 -13.18885,4.290038 -20.24683,2.343009 0.18528,-12.52592 8.74055,-32.07608 8.74055,-32.076077 0,0 -13.51782,18.051227 -25.49301,24.51323 -1.35509,-5.001593 -0.57981,-21.703583 -0.57981,-21.703583 0,0 -3.92347,7.042521 -8.50801,11.948623 C 98.331602,45.36854 96.690736,30.043643 96.690736,30.043643 Z m -6.712768,46.538245 6.71897,12.135694 5.808932,-9.695532 1.00873,9.81697 13.70666,-4.103108 -8.40931,10.19266 14.48025,3.488674 -12.29279,7.168034 5.83582,15.05593 -12.67364,-5.69991 -3.221,13.99966 -6.867782,-11.5657 -8.720397,8.02432 2.174026,-12.44265 -8.607742,0.77928 3.960481,-6.59237 -13.966073,-1.65158 13.699424,-4.177 -9.885701,-8.253241 12.585276,2.438611 -4.365625,-7.911663 7.970057,2.475817 z" />
  </g>
</svg>
