<?xml version="1.0" encoding="UTF-8" standalone="no"?>
<svg
   xmlns:dc="http://purl.org/dc/elements/1.1/"
   xmlns:cc="http://creativecommons.org/ns#"
   xmlns:rdf="http://www.w3.org/1999/02/22-rdf-syntax-ns#"
   xmlns:svg="http://www.w3.org/2000/svg"
   xmlns="http://www.w3.org/2000/svg"
   xmlns:sodipodi="http://sodipodi.sourceforge.net/DTD/sodipodi-0.dtd"
   xmlns:inkscape="http://www.inkscape.org/namespaces/inkscape"
   width="793.70081"
   height="1122.5197"
   viewBox="0 0 210 297"
   version="1.1"
   id="svg8"
   inkscape:version="1.0.1 (0767f8302a, 2020-10-17)"
   sodipodi:docname="ExplosionFX.svg">
  <defs
     id="defs2">
    <inkscape:perspective
       sodipodi:type="inkscape:persp3d"
       inkscape:vp_x="0 : 148.5 : 1"
       inkscape:vp_y="0 : 1000 : 0"
       inkscape:vp_z="210 : 148.5 : 1"
       inkscape:persp3d-origin="105 : 99 : 1"
       id="perspective1090" />
    <filter
       inkscape:collect="always"
       style="color-interpolation-filters:sRGB"
       id="filter1086"
       x="-6.4800001e-06"
       width="1.000013"
       y="-3.2399998e-05"
       height="1.0000648">
      <feGaussianBlur
         inkscape:collect="always"
         stdDeviation="0.0005715001"
         id="feGaussianBlur1088" />
    </filter>
  </defs>
  <sodipodi:namedview
     id="base"
     pagecolor="#ffffff"
     bordercolor="#666666"
     borderopacity="1.0"
     inkscape:pageopacity="0.0"
     inkscape:pageshadow="2"
     inkscape:zoom="1"
     inkscape:cx="285.07599"
     inkscape:cy="361.65417"
     inkscape:document-units="mm"
     inkscape:current-layer="layer1"
     inkscape:document-rotation="0"
     showgrid="false"
     units="px"
     inkscape:showpageshadow="true"
     showborder="true"
     inkscape:window-width="1920"
     inkscape:window-height="1136"
     inkscape:window-x="0"
     inkscape:window-y="27"
     inkscape:window-maximized="1">
    <inkscape:grid
       type="xygrid"
       id="grid992" />
  </sodipodi:namedview>
  <metadata
     id="metadata5">
    <rdf:RDF>
      <cc:Work
         rdf:about="">
        <dc:format>image/svg+xml</dc:format>
        <dc:type
           rdf:resource="http://purl.org/dc/dcmitype/StillImage" />
        <dc:title></dc:title>
      </cc:Work>
    </rdf:RDF>
  </metadata>
  <g
     inkscape:label="Layer 1"
     inkscape:groupmode="layer"
     id="layer1"
     style="filter:url(#filter1086)" />
  <g
     inkscape:groupmode="layer"
     id="layer2"
     inkscape:label="Layer 2">
    <rect
       style="fill:#ff0000;stroke:none;stroke-width:1.85208"
       id="rect994"
       width="211.6667"
       height="42.333332"
       x="0"
       y="0" />
    <rect
       style="fill:#0000ff;stroke:none;stroke-width:1.85208"
       id="rect998-3"
       width="42.333332"
       height="42.333344"
       x="42.333374"
       y="0" />
    <rect
       style="fill:#0000ff;stroke:none;stroke-width:1.85208"
       id="rect998-3-5-6"
       width="42.333332"
       height="42.333344"
       x="127.00004"
       y="0" />
    <circle
       style="fill:#ffffff;stroke:#f2f2f2;stroke-width:1.85208"
       id="path990"
       cx="191.05064"
       cy="21.855728"
       r="2.3309047" />
    <path
       id="path983"
       style="fill:#ffffff;stroke:#f2f2f2;stroke-width:1.85208"
       d="m 149.31452,15.379138 a 3.5416941,3.6250402 0 0 0 -3.50863,3.62489 3.5416941,3.6250402 0 0 0 0.0196,0.37926 4.5288067,4.6353824 0 0 0 -1.90257,3.77622 4.5288067,4.6353824 0 0 0 4.52882,4.6354 4.5288067,4.6353824 0 0 0 4.52882,-4.6354 4.5288067,4.6353824 0 0 0 -0.59383,-2.29437 3.5416941,3.6250402 0 0 0 0.50263,-1.86111 3.5416941,3.6250402 0 0 0 -3.54175,-3.62489 3.5416941,3.6250402 0 0 0 -0.0331,0 z" />
    <path
       id="path947"
       style="fill:#ffffff;stroke:#f2f2f2;stroke-width:1.85208"
       d="m 105.69034,11.674018 a 7.0012817,7.1822962 0 0 0 -7.001374,7.18239 7.0012817,7.1822962 0 0 0 4.729644,6.79371 2.8377796,2.911149 0 0 0 1.79548,1.6087 4.1443588,4.2515091 0 0 0 -0.0904,0.883 4.1443588,4.2515091 0 0 0 4.14434,4.25172 4.1443588,4.2515091 0 0 0 4.04743,-3.33781 4.0710696,4.1763251 0 0 0 3.89564,-4.17236 4.0710696,4.1763251 0 0 0 -4.07103,-4.17629 4.0710696,4.1763251 0 0 0 -0.70156,0.0625 7.0012817,7.1822962 0 0 0 0.25297,-1.91319 7.0012817,7.1822962 0 0 0 -7.00115,-7.18239 z m 10.33667,0.16493 a 1.742651,1.7877064 0 0 0 -1.74264,1.7877 1.742651,1.7877064 0 0 0 1.74264,1.7877 1.742651,1.7877064 0 0 0 1.74264,-1.7877 1.742651,1.7877064 0 0 0 -1.74264,-1.7877 z m -21.995952,6.09224 a 0.9602144,1.0270603 0 0 0 -0.945746,1.02695 0.9602144,1.0270603 0 0 0 0.960364,1.02717 0.9602144,1.0270603 0 0 0 0.960139,-1.02717 0.9602144,1.0270603 0 0 0 -0.960139,-1.02695 0.9602144,1.0270603 0 0 0 -0.01459,0 z" />
    <path
       id="path884"
       style="fill:#ffffff;stroke:#f2f2f2;stroke-width:1.85207"
       d="m 68.929225,7.3088077 a 1.3076237,1.2985062 0 0 0 -1.295184,1.2985 1.3076237,1.2985062 0 0 0 0.694727,1.14717 7.8064104,7.7519805 0 0 0 -3.4783,2.1053403 9.2295251,9.1651722 0 0 0 -3.369609,-0.63263 9.2295251,9.1651722 0 0 0 -9.229549,9.16521 9.2295251,9.1651722 0 0 0 1.197141,4.51374 7.3404583,7.2892776 0 0 0 -0.593803,2.87212 7.3404583,7.2892776 0 0 0 7.340341,7.28917 7.3404583,7.2892776 0 0 0 4.004007,-1.17977 8.7926218,8.7313156 0 0 0 4.6486,1.32006 8.7926218,8.7313156 0 0 0 8.792573,-8.73127 8.7926218,8.7313156 0 0 0 -1.142352,-4.3036 7.8064104,7.7519805 0 0 0 1.820445,-4.9759 7.8064104,7.7519805 0 0 0 -7.806379,-7.7519403 7.8064104,7.7519805 0 0 0 -0.590695,0.0223 1.3076237,1.2985062 0 0 0 0.328066,-0.85992 1.3076237,1.2985062 0 0 0 -1.307607,-1.29849 1.3076237,1.2985062 0 0 0 -0.01243,0 z M 47.529283,21.988688 a 1.9098845,1.8965678 0 0 0 -1.909836,1.89652 1.9098845,1.8965678 0 0 0 1.909836,1.89674 1.9098845,1.8965678 0 0 0 1.910058,-1.89674 1.9098845,1.8965678 0 0 0 -1.910058,-1.89652 z m 31.997432,7.2176 a 0.75015202,0.7449216 0 0 0 -0.749959,0.74471 0.75015202,0.7449216 0 0 0 0.750182,0.74495 0.75015202,0.7449216 0 0 0 0.750182,-0.74495 0.75015202,0.7449216 0 0 0 -0.750182,-0.74471 0.75015202,0.7449216 0 0 1 -2.27e-4,0 z" />
    <path
       id="path833"
       style="fill:#ffffff;stroke:#f2f2f2;stroke-width:1.85208"
       d="m 22.13815,2.3896477 a 11.001727,11.872974 0 0 0 -9.627684,6.19166 7.6384287,8.24333 0 0 0 -2.766387,-0.55967 7.6384287,8.24333 0 0 0 -7.638378,8.2432903 7.6384287,8.24333 0 0 0 2.409626,6.00922 8.8210504,9.5196056 0 0 0 -0.837225,4.04806 8.8210504,9.5196056 0 0 0 8.820932,9.51946 8.8210504,9.5196056 0 0 0 3.204945,-0.65053 6.0856204,6.5675519 0 0 0 5.83036,4.68584 6.0856204,6.5675519 0 0 0 5.353482,-3.44448 13.662975,14.744971 0 0 0 1.939174,-0.53564 5.2802712,5.6984256 0 0 0 1.805216,0.34346 5.2802712,5.6984256 0 0 0 5.280291,-5.69585 4.3241621,4.6666005 0 0 0 4.105349,-4.6605 4.3241621,4.6666005 0 0 0 -0.869519,-2.8067 9.86934,10.650912 0 0 0 0.826406,-4.26663 9.86934,10.650912 0 0 0 -8.292124,-10.5139303 11.001727,11.872974 0 0 0 -9.511778,-5.90706 11.001727,11.872974 0 0 0 -0.03268,0 z" />
  </g>
</svg>
